<svg width="25" height="31" viewBox="0 0 25 31" fill="none" xmlns="http://www.w3.org/2000/svg">
<path d="M17.75 4.09961H20.9C21.457 4.09961 21.9911 4.32086 22.3849 4.71469C22.7787 5.10851 23 5.64265 23 6.19961V27.1996C23 27.7566 22.7787 28.2907 22.3849 28.6845C21.9911 29.0784 21.457 29.2996 20.9 29.2996H4.1C3.54305 29.2996 3.0089 29.0784 2.61508 28.6845C2.22125 28.2907 2 27.7566 2 27.1996V6.19961C2 5.64265 2.22125 5.10851 2.61508 4.71469C3.0089 4.32086 3.54305 4.09961 4.1 4.09961H7.25" stroke="white" stroke-width="2.2" stroke-linecap="round" stroke-linejoin="round"/>
<path d="M15.65 2H9.35C8.1902 2 7.25 2.9402 7.25 4.1V5.15C7.25 6.3098 8.1902 7.25 9.35 7.25H15.65C16.8098 7.25 17.75 6.3098 17.75 5.15V4.1C17.75 2.9402 16.8098 2 15.65 2Z" stroke="white" stroke-width="2.2" stroke-linecap="round" stroke-linejoin="round"/>
<path d="M7.25 18.7998L11.45 21.9498L16.7 13.5498" stroke="white" stroke-width="2.2" stroke-linecap="round" stroke-linejoin="round"/>
</svg>
