<svg width="36" height="36" viewBox="0 0 36 36" fill="none" xmlns="http://www.w3.org/2000/svg">
<path fill-rule="evenodd" clip-rule="evenodd" d="M35.3176 3.97398C35.5337 3.75808 35.7053 3.50172 35.8224 3.21953C35.9394 2.93734 35.9998 2.63485 36 2.32933C36.0002 2.02382 35.9402 1.72125 35.8235 1.43892C35.7067 1.15659 35.5355 0.900014 35.3196 0.683848C35.1037 0.467683 34.8474 0.296159 34.5652 0.179069C34.283 0.0619797 33.9805 0.00161778 33.675 0.00143C33.3695 0.00124222 33.0669 0.0612323 32.7846 0.177975C32.5023 0.294718 32.2457 0.465926 32.0295 0.681826L17.9997 14.7119L3.97391 0.681826C3.53735 0.24526 2.94525 -4.59998e-09 2.32786 0C1.71048 4.59997e-09 1.11837 0.24526 0.681815 0.681826C0.245256 1.11839 4.5999e-09 1.7105 0 2.3279C-4.5999e-09 2.9453 0.245256 3.53741 0.681815 3.97398L14.7116 18L0.681815 32.026C0.465653 32.2422 0.294184 32.4988 0.177198 32.7812C0.0602116 33.0637 0 33.3664 0 33.6721C0 33.9778 0.0602116 34.2805 0.177198 34.5629C0.294184 34.8454 0.465653 35.102 0.681815 35.3182C1.11837 35.7547 1.71048 36 2.32786 36C2.63356 36 2.93627 35.9398 3.2187 35.8228C3.50113 35.7058 3.75775 35.5343 3.97391 35.3182L17.9997 21.2881L32.0295 35.3182C32.4661 35.7542 33.058 35.9989 33.675 35.9986C34.292 35.9982 34.8836 35.7527 35.3196 35.3161C35.7556 34.8796 36.0004 34.2877 36 33.6707C35.9996 33.0536 35.7541 32.462 35.3176 32.026L21.2878 18L35.3176 3.97398Z" fill="white"/>
</svg>
