<svg width="34" height="24" viewBox="0 0 34 24" fill="none" xmlns="http://www.w3.org/2000/svg">
<path d="M6.78274 0.392653C7.02152 0.623969 7.15563 0.937528 7.15563 1.26445C7.15563 1.59138 7.02152 1.90494 6.78274 2.13625C5.44086 3.43458 4.37641 4.97593 3.65019 6.6723C2.92396 8.36867 2.55017 10.1868 2.55017 12.023C2.55017 13.8591 2.92396 15.6773 3.65019 17.3736C4.37641 19.07 5.44086 20.6114 6.78274 21.9097C7.01489 22.1425 7.14326 22.4542 7.1402 22.7776C7.13713 23.1011 7.00289 23.4104 6.76638 23.6391C6.52986 23.8677 6.21 23.9973 5.87569 24C5.54138 24.0026 5.21936 23.8781 4.979 23.6533C-1.65967 17.2299 -1.65967 6.81601 4.979 0.392653C5.21807 0.161625 5.54214 0.0318594 5.88002 0.0318594C6.21791 0.0318594 6.54368 0.161625 6.78274 0.392653ZM29.021 0.392653C35.6597 6.81601 35.6597 17.2299 29.021 23.6549C28.7793 23.8728 28.4596 23.9915 28.1293 23.9858C27.799 23.9802 27.4838 23.8507 27.2502 23.6247C27.0166 23.3987 26.8828 23.0937 26.877 22.7741C26.8711 22.4545 26.9937 22.1452 27.219 21.9113C28.5611 20.613 29.6258 19.0715 30.3521 17.375C31.0785 15.6785 31.4524 13.8601 31.4524 12.0238C31.4524 10.1875 31.0785 8.3691 30.3521 6.67259C29.6258 4.97607 28.5611 3.43461 27.219 2.13625C27.0937 2.02331 26.9932 1.88711 26.9235 1.73578C26.8538 1.58445 26.8164 1.42109 26.8133 1.25544C26.8103 1.0898 26.8418 0.925258 26.9059 0.771644C26.9701 0.618029 27.0655 0.478485 27.1866 0.361337C27.3077 0.244189 27.4519 0.151836 27.6107 0.0897886C27.7694 0.027741 27.9395 -0.00273065 28.1107 0.000191993C28.2819 0.00311464 28.4507 0.0393717 28.6071 0.1068C28.7635 0.174228 28.9043 0.271445 29.021 0.392653ZM11.5905 5.04445C11.8292 5.27577 11.9634 5.58932 11.9634 5.91625C11.9634 6.24318 11.8292 6.55674 11.5905 6.78805C10.8798 7.47543 10.3161 8.29154 9.93147 9.18976C9.54685 10.088 9.34889 11.0507 9.34889 12.023C9.34889 12.9952 9.54685 13.958 9.93147 14.8562C10.3161 15.7544 10.8798 16.5705 11.5905 17.2579C11.8157 17.4917 11.9383 17.8011 11.9325 18.1207C11.9266 18.4403 11.7928 18.7452 11.5592 18.9713C11.3256 19.1973 11.0105 19.3268 10.6801 19.3324C10.3498 19.338 10.0301 19.2194 9.78842 19.0015C7.87565 17.1506 6.80107 14.6404 6.80107 12.023C6.80107 9.40554 7.87565 6.89531 9.78842 5.04445C10.0275 4.81342 10.3516 4.68366 10.6894 4.68366C11.0273 4.68366 11.3514 4.81342 11.5905 5.04445ZM24.2133 5.04445C26.1261 6.89531 27.2006 9.40554 27.2006 12.023C27.2006 14.6404 26.1261 17.1506 24.2133 19.0015C24.0957 19.1194 23.9551 19.2134 23.7995 19.2781C23.644 19.3429 23.4767 19.377 23.3074 19.3785C23.1381 19.38 22.9702 19.3488 22.8135 19.2869C22.6568 19.2249 22.5144 19.1334 22.3946 19.0176C22.2748 18.9018 22.1801 18.7641 22.1159 18.6125C22.0517 18.461 22.0194 18.2985 22.0208 18.1347C22.0222 17.9709 22.0573 17.809 22.124 17.6585C22.1907 17.5079 22.2878 17.3717 22.4095 17.2579C23.1199 16.5705 23.6835 15.7545 24.0679 14.8565C24.4524 13.9584 24.6503 12.9959 24.6503 12.0238C24.6503 11.0517 24.4524 10.0892 24.0679 9.19112C23.6835 8.29305 23.1199 7.47704 22.4095 6.7897C22.1843 6.55583 22.0617 6.24651 22.0675 5.9269C22.0734 5.6073 22.2072 5.30236 22.4408 5.07633C22.6744 4.85029 22.9896 4.72082 23.3199 4.71518C23.6502 4.70954 23.9699 4.82818 24.2116 5.04609L24.2133 5.04445ZM17 9.55643C17.6763 9.55643 18.3249 9.81638 18.8032 10.2791C19.2814 10.7418 19.5501 11.3694 19.5501 12.0238C19.5501 12.6782 19.2814 13.3058 18.8032 13.7685C18.3249 14.2312 17.6763 14.4912 17 14.4912C16.3237 14.4912 15.6751 14.2312 15.1968 13.7685C14.7186 13.3058 14.4499 12.6782 14.4499 12.0238C14.4499 11.3694 14.7186 10.7418 15.1968 10.2791C15.6751 9.81638 16.3237 9.55643 17 9.55643Z" fill="#274698"/>
</svg>
