<svg width="55" height="44" viewBox="0 0 55 44" fill="none" xmlns="http://www.w3.org/2000/svg">
<path fill-rule="evenodd" clip-rule="evenodd" d="M27.5358 12.542C25.0411 12.542 22.6486 13.533 20.8846 15.297C19.1206 17.061 18.1296 19.4535 18.1296 21.9481C18.1296 24.4428 19.1206 26.8353 20.8846 28.5993C22.6486 30.3633 25.0411 31.3543 27.5358 31.3543C30.0304 31.3543 32.4229 30.3633 34.1869 28.5993C35.9509 26.8353 36.9419 24.4428 36.9419 21.9481C36.9419 19.4535 35.9509 17.061 34.1869 15.297C32.4229 13.533 30.0304 12.542 27.5358 12.542ZM21.8921 21.9481C21.8921 20.4513 22.4867 19.0158 23.5451 17.9574C24.6035 16.8991 26.039 16.3045 27.5358 16.3045C29.0326 16.3045 30.4681 16.8991 31.5265 17.9574C32.5849 19.0158 33.1795 20.4513 33.1795 21.9481C33.1795 23.4449 32.5849 24.8804 31.5265 25.9388C30.4681 26.9972 29.0326 27.5918 27.5358 27.5918C26.039 27.5918 24.6035 26.9972 23.5451 25.9388C22.4867 24.8804 21.8921 23.4449 21.8921 21.9481Z" fill="white"/>
<path fill-rule="evenodd" clip-rule="evenodd" d="M27.5358 0C16.2133 0 8.58557 6.78246 4.15841 12.534L4.08065 12.6368C3.07733 13.9387 2.15678 15.1351 1.53221 16.5498C0.862497 18.0673 0.571533 19.7203 0.571533 21.9477C0.571533 24.175 0.862497 25.828 1.53221 27.3455C2.15929 28.7602 3.07984 29.9592 4.08065 31.2585L4.16092 31.3613C8.58557 37.1129 16.2133 43.8953 27.5358 43.8953C38.8583 43.8953 46.4861 37.1129 50.9132 31.3613L50.991 31.2585C51.9943 29.9592 52.9149 28.7602 53.5394 27.3455C54.2091 25.828 54.5001 24.175 54.5001 21.9477C54.5001 19.7203 54.2091 18.0673 53.5394 16.5498C52.9123 15.1351 51.9918 13.9387 50.991 12.6368L50.9107 12.534C46.4861 6.78246 38.8583 0 27.5358 0ZM7.14329 14.8291C11.2268 9.51902 17.8788 3.76246 27.5358 3.76246C37.1928 3.76246 43.8423 9.51902 47.9283 14.8291C49.032 16.2588 49.6741 17.1117 50.098 18.0698C50.4943 18.9678 50.7376 20.0639 50.7376 21.9477C50.7376 23.8314 50.4943 24.9275 50.098 25.8255C49.6741 26.7837 49.0295 27.6365 47.9309 29.0662C43.8398 34.3763 37.1928 40.1329 27.5358 40.1329C17.8788 40.1329 11.2293 34.3763 7.14329 29.0662C6.03964 27.6365 5.39751 26.7837 4.97361 25.8255C4.5773 24.9275 4.33399 23.8314 4.33399 21.9477C4.33399 20.0639 4.5773 18.9678 4.97361 18.0698C5.39751 17.1117 6.04466 16.2588 7.14329 14.8291Z" fill="white"/>
</svg>
