<svg width="23" height="23" viewBox="0 0 23 23" fill="none" xmlns="http://www.w3.org/2000/svg">
<path d="M21.7949 1.20505C21.0232 0.433467 19.9767 0 18.8854 0C17.7942 0 16.7476 0.433467 15.976 1.20505L2.23138 14.9488C1.76424 15.416 1.43583 16.0035 1.28264 16.6461L0.0234085 21.938C-0.0106866 22.0813 -0.00748991 22.231 0.0326938 22.3728C0.0728776 22.5145 0.148709 22.6436 0.252954 22.7477C0.3572 22.8519 0.486385 22.9275 0.628189 22.9676C0.769992 23.0076 0.919686 23.0106 1.06299 22.9764L6.35406 21.7161C6.99712 21.5631 7.58511 21.2347 8.05259 20.7674L21.7949 7.02591C22.5665 6.25431 23 5.20782 23 4.11663C23 3.02544 22.5665 1.97894 21.7949 1.20735V1.20505ZM17.195 2.42395C17.4169 2.20197 17.6805 2.02588 17.9705 1.90575C18.2606 1.78561 18.5715 1.72378 18.8854 1.72378C19.1994 1.72378 19.5103 1.78561 19.8003 1.90575C20.0904 2.02588 20.3539 2.20197 20.5759 2.42395C20.7979 2.64594 20.974 2.90947 21.0941 3.1995C21.2143 3.48954 21.2761 3.8004 21.2761 4.11433C21.2761 4.42826 21.2143 4.73912 21.0941 5.02915C20.974 5.31919 20.7979 5.58272 20.5759 5.8047L19.5501 6.82928L16.1692 3.44968L17.195 2.4251V2.42395ZM14.9502 4.67089L18.3311 8.04933L6.83131 19.5485C6.58981 19.79 6.28622 19.959 5.95387 20.0383L2.02553 20.9744L2.96046 17.0463C3.03981 16.7128 3.21001 16.4092 3.45151 16.1677L14.9502 4.66859V4.67089Z" fill="white"/>
</svg>
