<svg width="34" height="28" viewBox="0 0 34 28" fill="none" xmlns="http://www.w3.org/2000/svg">
<path d="M26.2637 12.0718C26.7174 12.8495 27.055 13.6597 27.2764 14.5023C27.4977 15.3449 27.6139 16.2145 27.625 17.1111V18.7801L17 23.9815L6.375 18.7801C6.375 18.1319 6.38053 17.527 6.3916 16.9653C6.40267 16.4035 6.45247 15.858 6.54102 15.3287C6.62956 14.7994 6.76237 14.2701 6.93945 13.7407C7.11654 13.2114 7.38216 12.6551 7.73633 12.0718L4.25 10.3704V19.8819C4.57096 19.99 4.85872 20.1412 5.11328 20.3356C5.36784 20.5301 5.59473 20.7569 5.79395 21.0162C5.99316 21.2755 6.13704 21.5563 6.22559 21.8588C6.31413 22.1613 6.36393 22.4799 6.375 22.8148V28H0V22.8148C0 22.4907 0.0498047 22.1775 0.149414 21.875C0.249023 21.5725 0.392904 21.2863 0.581055 21.0162C0.769206 20.7461 0.99056 20.5193 1.24512 20.3356C1.49967 20.152 1.79297 20.0008 2.125 19.8819V9.33333L0 8.2963L17 0L34 8.2963L26.2637 12.0718ZM4.25 22.8148C4.25 22.534 4.14486 22.2909 3.93457 22.0856C3.72428 21.8804 3.47526 21.7778 3.1875 21.7778C2.89974 21.7778 2.65072 21.8804 2.44043 22.0856C2.23014 22.2909 2.125 22.534 2.125 22.8148V25.9259H4.25V22.8148ZM4.74805 8.2963L17 14.2755L29.252 8.2963L17 2.31713L4.74805 8.2963ZM25.5 17.5C25.5 16.6682 25.417 15.8958 25.251 15.1829C25.085 14.4699 24.7917 13.7407 24.3711 12.9954L17 16.5926L9.62891 12.9954C9.26367 13.6219 8.98698 14.2809 8.79883 14.9722C8.61068 15.6636 8.51107 16.3765 8.5 17.1111V17.5L17 21.6481L25.5 17.5Z" fill="white"/>
</svg>
