<svg width="28" height="28" viewBox="0 0 28 28" fill="none" xmlns="http://www.w3.org/2000/svg">
<path d="M17.8359 0C16.0556 0 14.6191 -1.94062e-08 13.49 0.152372C12.3179 0.308651 11.3307 0.647256 10.5467 1.42995C9.86433 2.11367 9.51791 2.95367 9.33689 3.94084C9.16107 4.90065 9.12721 6.07405 9.1194 7.48316C9.11802 7.74221 9.2196 7.9912 9.4018 8.17535C9.584 8.3595 9.83189 8.46373 10.0909 8.46512C10.35 8.4665 10.599 8.36492 10.7831 8.18272C10.9673 8.00052 11.0715 7.75263 11.0729 7.49358C11.0807 6.07014 11.1172 5.06084 11.2578 4.29377C11.3946 3.55665 11.6121 3.12819 11.9285 2.81172C12.2893 2.45098 12.7959 2.21656 13.7518 2.08763C14.735 1.95609 16.0387 1.95349 17.9075 1.95349H19.2098C21.08 1.95349 22.3836 1.95609 23.3668 2.08763C24.3227 2.21656 24.828 2.45228 25.1901 2.81172C25.5495 3.17247 25.784 3.67777 25.9129 4.63498C26.0457 5.61693 26.047 6.92186 26.047 8.7907V19.2093C26.047 21.0781 26.0457 22.3818 25.9129 23.3663C25.784 24.3222 25.5495 24.8275 25.1888 25.1883C24.828 25.549 24.3227 25.7834 23.3668 25.9124C22.3836 26.0439 21.08 26.0465 19.2098 26.0465H17.9075C16.0387 26.0465 14.735 26.0439 13.7505 25.9124C12.7959 25.7834 12.2893 25.5477 11.9285 25.1883C11.6121 24.8705 11.3946 24.4433 11.2578 23.7062C11.1172 22.9392 11.0807 21.9299 11.0729 20.5064C11.0722 20.3782 11.0463 20.2513 10.9965 20.133C10.9468 20.0148 10.8743 19.9075 10.7831 19.8173C10.6919 19.7271 10.5839 19.6557 10.4651 19.6072C10.3463 19.5588 10.2192 19.5342 10.0909 19.5349C9.96267 19.5356 9.83579 19.5615 9.71755 19.6112C9.5993 19.6609 9.49201 19.7335 9.4018 19.8246C9.31158 19.9158 9.24021 20.0239 9.19176 20.1427C9.1433 20.2614 9.11871 20.3886 9.1194 20.5168C9.12721 21.926 9.16107 23.0993 9.33689 24.0592C9.51921 25.0463 9.86433 25.8863 10.5481 26.57C11.3307 27.354 12.3192 27.69 13.4913 27.8489C14.6191 28 16.0556 28 17.8359 28H19.2814C21.063 28 22.4982 28 23.6273 27.8489C24.7994 27.69 25.7866 27.354 26.5706 26.57C27.3546 25.786 27.6906 24.7989 27.8494 23.6268C28.0005 22.4977 28.0005 21.0612 28.0005 19.2809V8.71907C28.0005 6.93879 28.0005 5.50233 27.8494 4.37321C27.6919 3.20112 27.3546 2.21395 26.5706 1.42995C25.7866 0.645954 24.7994 0.309953 23.6273 0.152372C22.4982 -1.94062e-08 21.0617 0 19.2814 0H17.8359Z" fill="#015A36"/>
<path d="M17.9077 13.0237C18.1668 13.0237 18.4152 13.1266 18.5984 13.3097C18.7815 13.4929 18.8844 13.7414 18.8844 14.0004C18.8844 14.2595 18.7815 14.5079 18.5984 14.6911C18.4152 14.8742 18.1668 14.9771 17.9077 14.9771H3.61728L6.17114 17.1651C6.36802 17.3336 6.48988 17.5735 6.5099 17.8319C6.52993 18.0903 6.44649 18.346 6.27794 18.5429C6.10938 18.7398 5.86952 18.8616 5.61112 18.8817C5.35272 18.9017 5.09695 18.8183 4.90008 18.6497L0.341936 14.7427C0.234709 14.651 0.14862 14.5372 0.0895928 14.409C0.0305652 14.2809 0 14.1415 0 14.0004C0 13.8593 0.0305652 13.7199 0.0895928 13.5918C0.14862 13.4636 0.234709 13.3498 0.341936 13.2581L4.90008 9.3511C4.99756 9.26764 5.11053 9.2042 5.23253 9.1644C5.35453 9.1246 5.48318 9.10922 5.61112 9.11913C5.73907 9.12905 5.86381 9.16407 5.97822 9.22219C6.09263 9.28032 6.19448 9.36041 6.27794 9.45789C6.3614 9.55538 6.42484 9.66834 6.46464 9.79035C6.50444 9.91235 6.51982 10.041 6.5099 10.1689C6.49999 10.2969 6.46497 10.4216 6.40684 10.536C6.34872 10.6505 6.26863 10.7523 6.17114 10.8358L3.61859 13.0237H17.9077Z" fill="#015A36"/>
</svg>
