<svg width="28" height="28" viewBox="0 0 28 28" fill="none" xmlns="http://www.w3.org/2000/svg">
<g clip-path="url(#clip0_500_9)">
<path d="M27.707 17.293L24.707 14.293C24.5195 14.1055 24.2652 14.0002 24 14.0002C23.7348 14.0002 23.4805 14.1055 23.293 14.293L14 23.586V28H18.414L27.707 18.707C27.8945 18.5195 27.9998 18.2652 27.9998 18C27.9998 17.7348 27.8945 17.4805 27.707 17.293ZM17.586 26H16V24.414L21 19.414L22.586 21L17.586 26ZM24 19.586L22.414 18L24 16.414L25.586 18L24 19.586ZM6 14H16V16H6V14ZM6 8H18V10H6V8Z" fill="white"/>
<path d="M24 2C23.9995 1.46973 23.7886 0.961329 23.4136 0.586371C23.0387 0.211413 22.5303 0.000529477 22 0H2.00001C1.46974 0.000529477 0.961336 0.211413 0.586378 0.586371C0.21142 0.961329 0.000536334 1.46973 6.85781e-06 2V15C-0.00222166 16.9943 0.538726 18.9517 1.56478 20.6618C2.59084 22.372 4.06327 23.7704 5.82401 24.707L11 27.467V25.2L6.76601 22.942C5.32536 22.1757 4.12056 21.0315 3.28091 19.6324C2.44127 18.2332 1.99846 16.6318 2.00001 15V2H22V11H24V2Z" fill="white"/>
</g>
<defs>
<clipPath id="clip0_500_9">
<rect width="28" height="28" fill="white"/>
</clipPath>
</defs>
</svg>
