<svg width="30" height="29" viewBox="0 0 30 29" fill="none" xmlns="http://www.w3.org/2000/svg">
<path fill-rule="evenodd" clip-rule="evenodd" d="M4.35257 4.19244C10.1909 -1.44404 19.6831 -1.38455 25.5568 4.29506C31.4336 9.97615 31.4952 19.1566 25.6553 24.8005C19.8169 30.4444 10.3202 30.3864 4.44334 24.7053C2.79029 23.1139 1.54131 21.1738 0.794444 19.0372C0.0475794 16.9007 -0.176841 14.6259 0.138802 12.3914C0.180216 12.0981 0.340444 11.8328 0.584236 11.6537C0.828029 11.4746 1.13542 11.3965 1.43878 11.4366C1.74214 11.4766 2.01662 11.6315 2.20185 11.8672C2.38707 12.1028 2.46787 12.4 2.42645 12.6933C2.15852 14.5869 2.34847 16.5148 2.98138 18.3256C3.61428 20.1363 4.67291 21.7805 6.07408 23.1289C11.0663 27.9534 19.1015 27.9816 24.0245 23.2241C28.946 18.4651 28.9167 10.6974 23.9261 5.87148C18.9369 1.04999 10.9063 1.01876 5.98331 5.77035L7.13406 5.77482C7.28558 5.7755 7.43548 5.80503 7.5752 5.86171C7.71492 5.9184 7.84172 6.00113 7.94836 6.10519C8.055 6.20925 8.1394 6.33259 8.19673 6.46818C8.25406 6.60377 8.28321 6.74894 8.2825 6.89542C8.28179 7.04189 8.25125 7.1868 8.19261 7.32187C8.13397 7.45693 8.04839 7.57951 7.94074 7.6826C7.8331 7.78569 7.70551 7.86728 7.56525 7.9227C7.42499 7.97812 7.27481 8.00629 7.12329 8.00561L3.20644 7.98776C2.90229 7.9862 2.61108 7.8686 2.39616 7.66056C2.18124 7.45251 2.05998 7.17085 2.05877 6.87683L2.03877 3.0934C2.03796 2.94692 2.067 2.80173 2.12424 2.6661C2.18148 2.53048 2.26579 2.40708 2.37236 2.30295C2.47894 2.19883 2.60568 2.11601 2.74536 2.05924C2.88504 2.00246 3.03492 1.97284 3.18644 1.97205C3.33796 1.97127 3.48816 1.99935 3.62846 2.05468C3.76876 2.11001 3.89641 2.19152 4.00412 2.29454C4.11183 2.39756 4.1975 2.52008 4.25623 2.65511C4.31497 2.79014 4.34561 2.93503 4.34642 3.0815L4.35257 4.19393V4.19244ZM14.9985 7.43453C15.3045 7.43453 15.598 7.55204 15.8144 7.76122C16.0308 7.9704 16.1524 8.2541 16.1524 8.54993V14.0377L19.6615 17.4285C19.7718 17.5313 19.8597 17.6544 19.9203 17.7904C19.9808 17.9265 20.0127 18.0728 20.0141 18.2209C20.0155 18.369 19.9864 18.5159 19.9284 18.653C19.8705 18.7901 19.7849 18.9147 19.6766 19.0195C19.5683 19.1243 19.4395 19.2071 19.2978 19.2633C19.156 19.3194 19.0041 19.3477 18.8509 19.3465C18.6976 19.3453 18.5462 19.3146 18.4054 19.2562C18.2646 19.1978 18.1373 19.1129 18.0308 19.0064L13.8462 14.9612V8.55141C13.8462 8.25559 13.9678 7.97188 14.1842 7.76271C14.4006 7.55353 14.6941 7.43601 15.0001 7.43601L14.9985 7.43453Z" fill="#274698"/>
</svg>
