<svg width="119" height="99" viewBox="0 0 119 99" fill="none" xmlns="http://www.w3.org/2000/svg">
<path d="M114.55 39.3461C73.7882 34.7547 38.6382 59.5728 41 92.4917M25.5833 29.2833C25.5833 31.9656 26.8827 34.5379 29.1957 36.4345C31.5086 38.3312 34.6457 39.3967 37.9167 39.3967C41.1877 39.3967 44.3247 38.3312 46.6377 36.4345C48.9506 34.5379 50.25 31.9656 50.25 29.2833C50.25 26.6011 48.9506 24.0287 46.6377 22.1321C44.3247 20.2355 41.1877 19.17 37.9167 19.17C34.6457 19.17 31.5086 20.2355 29.1957 22.1321C26.8827 24.0287 25.5833 26.6011 25.5833 29.2833Z" stroke="white" stroke-width="6.5" stroke-linecap="round" stroke-linejoin="round"/>
<path d="M4 54.9006C21.1433 52.9538 36.5292 59.7449 44.848 70.5763" stroke="white" stroke-width="6.5" stroke-linecap="round" stroke-linejoin="round"/>
<path d="M4 49.51C4 28.0546 4 17.3294 12.1277 10.6647C20.2553 4 33.341 4 59.5 4C85.6652 4 98.7447 4 106.872 10.6647C115 17.3294 115 28.0596 115 49.51C115 70.9654 115 81.6906 106.872 88.3553C98.7447 95.02 85.659 95.02 59.5 95.02C33.3348 95.02 20.2553 95.02 12.1277 88.3553C4 81.6906 4 70.9604 4 49.51Z" stroke="white" stroke-width="6.5" stroke-linecap="round" stroke-linejoin="round"/>
</svg>
