<svg width="54" height="53" viewBox="0 0 54 53" fill="none" xmlns="http://www.w3.org/2000/svg">
<path fill-rule="evenodd" clip-rule="evenodd" d="M26.9643 16.542C24.4696 16.542 22.0771 17.533 20.3131 19.297C18.5491 21.061 17.5581 23.4535 17.5581 25.9481C17.5581 28.4428 18.5491 30.8353 20.3131 32.5993C22.0771 34.3633 24.4696 35.3543 26.9643 35.3543C29.4589 35.3543 31.8514 34.3633 33.6154 32.5993C35.3794 30.8353 36.3704 28.4428 36.3704 25.9481C36.3704 23.4535 35.3794 21.061 33.6154 19.297C31.8514 17.533 29.4589 16.542 26.9643 16.542ZM21.3206 25.9481C21.3206 24.4513 21.9152 23.0158 22.9736 21.9574C24.032 20.8991 25.4675 20.3045 26.9643 20.3045C28.4611 20.3045 29.8965 20.8991 30.9549 21.9574C32.0133 23.0158 32.6079 24.4513 32.6079 25.9481C32.6079 27.4449 32.0133 28.8804 30.9549 29.9388C29.8965 30.9972 28.4611 31.5918 26.9643 31.5918C25.4675 31.5918 24.032 30.9972 22.9736 29.9388C21.9152 28.8804 21.3206 27.4449 21.3206 25.9481Z" fill="#4C4C4C"/>
<path fill-rule="evenodd" clip-rule="evenodd" d="M26.9643 4C15.6418 4 8.01404 10.7825 3.58688 16.534L3.50912 16.6368C2.5058 17.9387 1.58525 19.1351 0.960681 20.5498C0.290964 22.0673 0 23.7203 0 25.9477C0 28.175 0.290964 29.828 0.960681 31.3455C1.58776 32.7602 2.50831 33.9592 3.50912 35.2585L3.58939 35.3613C8.01404 41.1129 15.6418 47.8953 26.9643 47.8953C38.2868 47.8953 45.9145 41.1129 50.3417 35.3613L50.4194 35.2585C51.4228 33.9592 52.3433 32.7602 52.9679 31.3455C53.6376 29.828 53.9286 28.175 53.9286 25.9477C53.9286 23.7203 53.6376 22.0673 52.9679 20.5498C52.3408 19.1351 51.4203 17.9387 50.4194 16.6368L50.3392 16.534C45.9145 10.7825 38.2868 4 26.9643 4ZM6.57176 18.8291C10.6553 13.519 17.3073 7.76246 26.9643 7.76246C36.6213 7.76246 43.2708 13.519 47.3568 18.8291C48.4605 20.2588 49.1026 21.1117 49.5265 22.0698C49.9228 22.9678 50.1661 24.0639 50.1661 25.9477C50.1661 27.8314 49.9228 28.9275 49.5265 29.8255C49.1026 30.7837 48.458 31.6365 47.3593 33.0662C43.2683 38.3763 36.6213 44.1329 26.9643 44.1329C17.3073 44.1329 10.6578 38.3763 6.57176 33.0662C5.46811 31.6365 4.82598 30.7837 4.40208 29.8255C4.00576 28.9275 3.76246 27.8314 3.76246 25.9477C3.76246 24.0639 4.00576 22.9678 4.40208 22.0698C4.82598 21.1117 5.47312 20.2588 6.57176 18.8291Z" fill="#4C4C4C"/>
<path d="M13 51L43 2" stroke="#4C4C4C" stroke-width="3.4" stroke-linecap="round"/>
</svg>
