<svg width="97" height="105" viewBox="0 0 97 105" fill="none" xmlns="http://www.w3.org/2000/svg">
<path d="M95.8993 76.7038C93.0949 71.8776 88.9262 58.222 88.9262 40.3864C88.9262 29.6752 84.6673 19.4028 77.0864 11.8289C69.5055 4.25498 59.2235 0 48.5025 0C37.7815 0 27.4996 4.25498 19.9187 11.8289C12.3378 19.4028 8.07887 29.6752 8.07887 40.3864C8.07887 58.227 3.90513 71.8776 1.10074 76.7038C0.384588 77.9308 0.00492812 79.3247 4.76542e-05 80.745C-0.00483281 82.1653 0.365239 83.5618 1.07294 84.7937C1.78065 86.0255 2.80096 87.0491 4.03098 87.7613C5.261 88.4734 6.65723 88.849 8.07887 88.85H28.7C29.6326 93.4094 32.1129 97.5071 35.7212 100.45C39.3296 103.393 43.8446 105 48.5025 105C53.1605 105 57.6754 103.393 61.2838 100.45C64.8922 97.5071 67.3724 93.4094 68.3051 88.85H88.9262C90.3474 88.8481 91.743 88.4719 92.9723 87.7594C94.2016 87.0469 95.2212 86.0231 95.9283 84.7915C96.6354 83.5598 97.005 82.1636 96.9999 80.7437C96.9948 79.3238 96.6152 77.9304 95.8993 76.7038ZM48.5025 96.9273C45.9953 96.9265 43.55 96.1494 41.5032 94.7029C39.4563 93.2564 37.9085 91.2116 37.0727 88.85H59.9323C59.0966 91.2116 57.5488 93.2564 55.5019 94.7029C53.455 96.1494 51.0097 96.9265 48.5025 96.9273ZM8.07887 80.7727C11.9697 74.0888 16.1636 58.6006 16.1636 40.3864C16.1636 31.8175 19.5707 23.5995 25.6355 17.5404C31.7002 11.4813 39.9257 8.07727 48.5025 8.07727C57.0793 8.07727 65.3049 11.4813 71.3696 17.5404C77.4343 23.5995 80.8414 31.8175 80.8414 40.3864C80.8414 58.5855 85.0253 74.0736 88.9262 80.7727H8.07887Z" fill="#015A36"/>
</svg>
