<svg width="18" height="18" viewBox="0 0 18 18" fill="none" xmlns="http://www.w3.org/2000/svg">
<g clip-path="url(#clip0_487_6)">
<path d="M15.2199 17.7503H2.77994C2.43316 17.7362 2.09256 17.6538 1.77765 17.5079C1.46274 17.3619 1.17969 17.1554 0.944701 16.8999C0.709711 16.6445 0.527393 16.3453 0.408179 16.0193C0.288964 15.6933 0.235194 15.3471 0.249944 15.0003V12.0003C0.249944 11.8014 0.328961 11.6106 0.469614 11.47C0.610266 11.3293 0.801031 11.2503 0.999944 11.2503C1.19886 11.2503 1.38962 11.3293 1.53027 11.47C1.67093 11.6106 1.74994 11.8014 1.74994 12.0003V15.0003C1.72412 15.2972 1.81359 15.5927 1.99977 15.8255C2.18596 16.0582 2.45459 16.2103 2.74994 16.2503H15.2199C15.5153 16.2103 15.7839 16.0582 15.9701 15.8255C16.1563 15.5927 16.2458 15.2972 16.2199 15.0003V12.0003C16.2199 11.8014 16.299 11.6106 16.4396 11.47C16.5803 11.3293 16.771 11.2503 16.9699 11.2503C17.1689 11.2503 17.3596 11.3293 17.5003 11.47C17.6409 11.6106 17.7199 11.8014 17.7199 12.0003V15.0003C17.7499 15.6957 17.504 16.3747 17.0358 16.8898C16.5676 17.4048 15.915 17.7141 15.2199 17.7503ZM12.9999 5.75032C12.9014 5.75078 12.8038 5.73156 12.7128 5.69378C12.6217 5.656 12.5392 5.60043 12.4699 5.53032L8.99994 2.06032L5.52994 5.53032C5.38777 5.6628 5.19972 5.73492 5.00542 5.73149C4.81112 5.72806 4.62573 5.64935 4.48832 5.51194C4.35091 5.37453 4.2722 5.18914 4.26877 4.99484C4.26534 4.80054 4.33746 4.61249 4.46994 4.47032L8.46994 0.470317C8.61057 0.329866 8.80119 0.250977 8.99994 0.250977C9.19869 0.250977 9.38932 0.329866 9.52994 0.470317L13.5299 4.47032C13.6704 4.61094 13.7493 4.80157 13.7493 5.00032C13.7493 5.19907 13.6704 5.38969 13.5299 5.53032C13.4607 5.60043 13.3781 5.656 13.2871 5.69378C13.1961 5.73156 13.0985 5.75078 12.9999 5.75032Z" fill="#015030"/>
<path d="M9 12.75C8.80189 12.7474 8.61263 12.6676 8.47253 12.5275C8.33244 12.3874 8.25259 12.1981 8.25 12V1C8.25 0.801088 8.32902 0.610322 8.46967 0.46967C8.61032 0.329018 8.80109 0.25 9 0.25C9.19891 0.25 9.38968 0.329018 9.53033 0.46967C9.67098 0.610322 9.75 0.801088 9.75 1V12C9.74741 12.1981 9.66756 12.3874 9.52747 12.5275C9.38737 12.6676 9.19811 12.7474 9 12.75Z" fill="#015030"/>
</g>
<defs>
<clipPath id="clip0_487_6">
<rect width="18" height="18" fill="white"/>
</clipPath>
</defs>
</svg>
