<svg width="39" height="34" viewBox="0 0 39 34" fill="none" xmlns="http://www.w3.org/2000/svg">
<path d="M19.6316 14.6316C23.1197 14.6316 25.9474 11.8039 25.9474 8.31579C25.9474 4.82768 23.1197 2 19.6316 2C16.1435 2 13.3158 4.82768 13.3158 8.31579C13.3158 11.8039 16.1435 14.6316 19.6316 14.6316Z" stroke="white" stroke-width="2.6"/>
<path d="M29.1052 13.0529C31.7215 13.0529 33.8421 11.2845 33.8421 9.10557C33.8421 6.92662 31.7215 5.1582 29.1052 5.1582M10.1579 13.0529C7.54155 13.0529 5.42102 11.2845 5.42102 9.10557C5.42102 6.92662 7.54155 5.1582 10.1579 5.1582" stroke="white" stroke-width="2.6" stroke-linecap="round"/>
<path d="M19.6316 31.9997C24.8638 31.9997 29.1053 29.1721 29.1053 25.684C29.1053 22.1958 24.8638 19.3682 19.6316 19.3682C14.3995 19.3682 10.158 22.1958 10.158 25.684C10.158 29.1721 14.3995 31.9997 19.6316 31.9997Z" stroke="white" stroke-width="2.6"/>
<path d="M32.2632 28.842C35.0327 28.2341 37 26.6962 37 24.8946C37 23.0931 35.0327 21.5552 32.2632 20.9473M7.00003 28.842C4.23055 28.2341 2.26318 26.6962 2.26318 24.8946C2.26318 23.0931 4.23055 21.5552 7.00003 20.9473" stroke="white" stroke-width="2.6" stroke-linecap="round"/>
</svg>
